<svg width="80" height="30" viewBox="0 0 80 30" fill="none" xmlns="http://www.w3.org/2000/svg">
<path d="M37.8656 20.224C37.2869 20.224 36.7713 20.1447 36.3186 19.986C35.8659 19.8227 35.4763 19.6243 35.1496 19.391C34.8229 19.1577 34.5546 18.929 34.3446 18.705C34.1346 18.4763 33.9806 18.2967 33.8826 18.166L34.6596 17.06C34.7669 17.1907 34.9116 17.3587 35.0936 17.564C35.2756 17.7693 35.4996 17.9747 35.7656 18.18C36.0316 18.3853 36.3419 18.558 36.6966 18.698C37.0513 18.838 37.4526 18.908 37.9006 18.908C38.3253 18.908 38.7103 18.8333 39.0556 18.684C39.4009 18.5347 39.6763 18.313 39.8816 18.019C40.0916 17.725 40.1966 17.361 40.1966 16.927C40.1966 16.5583 40.1219 16.2457 39.9726 15.989C39.8233 15.7277 39.6156 15.5037 39.3496 15.317C39.0836 15.1303 38.7733 14.96 38.4186 14.806C38.0639 14.6473 37.6813 14.4887 37.2706 14.33C36.9813 14.2133 36.6873 14.078 36.3886 13.924C36.0899 13.7653 35.8146 13.574 35.5626 13.35C35.3106 13.1213 35.1076 12.8507 34.9536 12.538C34.7996 12.2253 34.7226 11.8567 34.7226 11.432C34.7226 11.0027 34.8043 10.5967 34.9676 10.214C35.1309 9.83133 35.3619 9.493 35.6606 9.199C35.9593 8.90033 36.3139 8.667 36.7246 8.499C37.1399 8.32633 37.5996 8.24 38.1036 8.24C38.5516 8.24 38.9739 8.31 39.3706 8.45C39.7719 8.59 40.1289 8.76967 40.4416 8.989C40.7543 9.20367 41.0039 9.43 41.1906 9.668L40.5256 10.711C40.3716 10.5103 40.1756 10.3213 39.9376 10.144C39.6996 9.962 39.4266 9.815 39.1186 9.703C38.8106 9.591 38.4793 9.535 38.1246 9.535C37.6906 9.535 37.3219 9.626 37.0186 9.808C36.7199 9.98533 36.4913 10.2163 36.3326 10.501C36.1739 10.7857 36.0946 11.089 36.0946 11.411C36.0946 11.7003 36.1529 11.9453 36.2696 12.146C36.3909 12.3467 36.5519 12.517 36.7526 12.657C36.9533 12.797 37.1796 12.9207 37.4316 13.028C37.6836 13.1353 37.9426 13.238 38.2086 13.336C38.6846 13.5227 39.1349 13.7163 39.5596 13.917C39.9843 14.113 40.3576 14.344 40.6796 14.61C41.0016 14.8713 41.2536 15.1863 41.4356 15.555C41.6223 15.9237 41.7156 16.3693 41.7156 16.892C41.7156 17.5967 41.5476 18.1987 41.2116 18.698C40.8803 19.1927 40.4253 19.5707 39.8466 19.832C39.2679 20.0933 38.6076 20.224 37.8656 20.224ZM47.4852 20.224C46.9439 20.224 46.4352 20.1283 45.9592 19.937C45.4879 19.7457 45.0726 19.4773 44.7132 19.132C44.3539 18.7867 44.0716 18.383 43.8662 17.921C43.6656 17.459 43.5652 16.9573 43.5652 16.416C43.5652 15.884 43.6632 15.3893 43.8592 14.932C44.0552 14.47 44.3306 14.0663 44.6852 13.721C45.0399 13.371 45.4552 13.098 45.9312 12.902C46.4072 12.706 46.9229 12.608 47.4782 12.608C47.9496 12.608 48.3976 12.678 48.8222 12.818C49.2469 12.9533 49.6062 13.1377 49.9002 13.371L49.3892 14.288C48.9179 13.924 48.3416 13.742 47.6602 13.742C47.1189 13.742 46.6452 13.8633 46.2392 14.106C45.8332 14.344 45.5182 14.666 45.2942 15.072C45.0749 15.478 44.9652 15.926 44.9652 16.416C44.9652 16.92 45.0796 17.375 45.3082 17.781C45.5369 18.1823 45.8542 18.502 46.2602 18.74C46.6709 18.9733 47.1422 19.09 47.6742 19.09C48.0056 19.09 48.3182 19.0433 48.6122 18.95C48.9062 18.852 49.1629 18.7167 49.3822 18.544L49.9002 19.461C49.6016 19.6897 49.2422 19.874 48.8222 20.014C48.4022 20.154 47.9566 20.224 47.4852 20.224ZM51.9529 20V12.832H53.3109V13.882C53.5489 13.4667 53.8522 13.1517 54.2209 12.937C54.5896 12.7177 55.0072 12.608 55.4739 12.608C55.6979 12.608 55.9242 12.636 56.1529 12.692C56.3862 12.7433 56.5869 12.8133 56.7549 12.902L56.1949 14.05C56.0502 13.9707 55.8822 13.9077 55.6909 13.861C55.4996 13.8143 55.3199 13.791 55.1519 13.791C54.8392 13.791 54.5406 13.8727 54.2559 14.036C53.9759 14.1947 53.7472 14.4023 53.5699 14.659C53.3972 14.9157 53.3109 15.191 53.3109 15.485V20H51.9529ZM61.8163 20.224C61.0557 20.224 60.3697 20.063 59.7583 19.741C59.1517 19.419 58.6687 18.971 58.3093 18.397C57.9547 17.823 57.7773 17.1627 57.7773 16.416C57.7773 15.6647 57.9547 15.0043 58.3093 14.435C58.6687 13.861 59.1517 13.413 59.7583 13.091C60.3697 12.769 61.0557 12.608 61.8163 12.608C62.577 12.608 63.2607 12.769 63.8673 13.091C64.4787 13.413 64.9617 13.861 65.3163 14.435C65.6757 15.0043 65.8553 15.6647 65.8553 16.416C65.8553 17.1627 65.6757 17.823 65.3163 18.397C64.9617 18.971 64.4787 19.419 63.8673 19.741C63.2607 20.063 62.577 20.224 61.8163 20.224ZM61.8233 19.041C62.3227 19.041 62.7707 18.929 63.1673 18.705C63.564 18.481 63.8767 18.1707 64.1053 17.774C64.334 17.3773 64.4483 16.9247 64.4483 16.416C64.4483 15.9027 64.334 15.45 64.1053 15.058C63.8767 14.6613 63.564 14.351 63.1673 14.127C62.7707 13.903 62.3227 13.791 61.8233 13.791C61.3193 13.791 60.869 13.903 60.4723 14.127C60.0757 14.351 59.763 14.6613 59.5343 15.058C59.3057 15.45 59.1913 15.9027 59.1913 16.416C59.1913 16.9247 59.3057 17.3773 59.5343 17.774C59.763 18.1707 60.0757 18.481 60.4723 18.705C60.869 18.929 61.3193 19.041 61.8233 19.041ZM68.1267 20V7.96H69.4847V20H68.1267ZM72.3513 20V7.96H73.7093V20H72.3513Z" fill="#6E6E6E"/>
<path d="M14.2091 27.5C7.66955 27.5 2.36819 21.9035 2.36819 15C2.36819 8.09644 7.66955 2.5 14.2091 2.5C20.7486 2.5 26.05 8.09644 26.05 15C26.0428 21.9004 20.7457 27.4924 14.2091 27.5ZM14.2091 5C8.97746 5 4.73637 9.47715 4.73637 15C4.73637 20.5229 8.97746 25 14.2091 25C19.4408 25 23.6819 20.5229 23.6819 15C23.6759 9.47972 19.4383 5.0062 14.2091 5ZM14.2091 21.25L8.28865 15L9.95822 13.2375L13.025 16.4625V8.75H15.3932V16.4625L18.46 13.2375L20.1296 15L14.2091 21.25Z" fill="#6E6E6E"/>
</svg>
