<svg width="1204" height="17" viewBox="0 0 1204 17" fill="none" xmlns="http://www.w3.org/2000/svg">
<path d="M-5 9.07104L2.07107 1.99998L9.14214 9.07104" stroke="black" stroke-width="2"/>
<path d="M8 9.07104L15.0711 1.99998L22.1421 9.07104" stroke="black" stroke-width="2"/>
<path d="M21 9.07104L28.0711 1.99998L35.1421 9.07104" stroke="black" stroke-width="2"/>
<path d="M34 9.07104L41.0711 1.99998L48.1421 9.07104" stroke="black" stroke-width="2"/>
<path d="M47 9.07104L54.0711 1.99998L61.1421 9.07104" stroke="black" stroke-width="2"/>
<path d="M60 9.07104L67.0711 1.99998L74.1421 9.07104" stroke="black" stroke-width="2"/>
<path d="M73 9.07104L80.0711 1.99998L87.1421 9.07104" stroke="black" stroke-width="2"/>
<path d="M86 9.07104L93.0711 1.99998L100.142 9.07104" stroke="black" stroke-width="2"/>
<path d="M99 9.07104L106.071 1.99998L113.142 9.07104" stroke="black" stroke-width="2"/>
<path d="M112 9.07104L119.071 1.99998L126.142 9.07104" stroke="black" stroke-width="2"/>
<path d="M125 9.07104L132.071 1.99998L139.142 9.07104" stroke="black" stroke-width="2"/>
<path d="M138 9.07104L145.071 1.99998L152.142 9.07104" stroke="black" stroke-width="2"/>
<path d="M151 9.07104L158.071 1.99998L165.142 9.07104" stroke="black" stroke-width="2"/>
<path d="M164 9.07104L171.071 1.99998L178.142 9.07104" stroke="black" stroke-width="2"/>
<path d="M177 9.07104L184.071 1.99998L191.142 9.07104" stroke="black" stroke-width="2"/>
<path d="M190 9.07104L197.071 1.99998L204.142 9.07104" stroke="black" stroke-width="2"/>
<path d="M203 9.07104L210.071 1.99998L217.142 9.07104" stroke="black" stroke-width="2"/>
<path d="M216 9.07104L223.071 1.99998L230.142 9.07104" stroke="black" stroke-width="2"/>
<path d="M229 9.07104L236.071 1.99998L243.142 9.07104" stroke="black" stroke-width="2"/>
<path d="M242 9.07104L249.071 1.99998L256.142 9.07104" stroke="black" stroke-width="2"/>
<path d="M255 9.07104L262.071 1.99998L269.142 9.07104" stroke="black" stroke-width="2"/>
<path d="M268 9.07104L275.071 1.99998L282.142 9.07104" stroke="black" stroke-width="2"/>
<path d="M281 9.07104L288.071 1.99998L295.142 9.07104" stroke="black" stroke-width="2"/>
<path d="M294 9.07104L301.071 1.99998L308.142 9.07104" stroke="black" stroke-width="2"/>
<path d="M307 9.07104L314.071 1.99998L321.142 9.07104" stroke="black" stroke-width="2"/>
<path d="M320 9.07104L327.071 1.99998L334.142 9.07104" stroke="black" stroke-width="2"/>
<path d="M333 9.07104L340.071 1.99998L347.142 9.07104" stroke="black" stroke-width="2"/>
<path d="M346 9.07104L353.071 1.99998L360.142 9.07104" stroke="black" stroke-width="2"/>
<path d="M359 9.07104L366.071 1.99998L373.142 9.07104" stroke="black" stroke-width="2"/>
<path d="M372 9.07104L379.071 1.99998L386.142 9.07104" stroke="black" stroke-width="2"/>
<path d="M385 9.07104L392.071 1.99998L399.142 9.07104" stroke="black" stroke-width="2"/>
<path d="M398 9.07104L405.071 1.99998L412.142 9.07104" stroke="black" stroke-width="2"/>
<path d="M411 9.07104L418.071 1.99998L425.142 9.07104" stroke="black" stroke-width="2"/>
<path d="M424 9.07104L431.071 1.99998L438.142 9.07104" stroke="black" stroke-width="2"/>
<path d="M437 9.07104L444.071 1.99998L451.142 9.07104" stroke="black" stroke-width="2"/>
<path d="M450 9.07104L457.071 1.99998L464.142 9.07104" stroke="black" stroke-width="2"/>
<path d="M463 9.07104L470.071 1.99998L477.142 9.07104" stroke="black" stroke-width="2"/>
<path d="M476 9.07104L483.071 1.99998L490.142 9.07104" stroke="black" stroke-width="2"/>
<path d="M489 9.07104L496.071 1.99998L503.142 9.07104" stroke="black" stroke-width="2"/>
<path d="M502 9.07104L509.071 1.99998L516.142 9.07104" stroke="black" stroke-width="2"/>
<path d="M515 9.07104L522.071 1.99998L529.142 9.07104" stroke="black" stroke-width="2"/>
<path d="M528 9.07104L535.071 1.99998L542.142 9.07104" stroke="black" stroke-width="2"/>
<path d="M541 9.07104L548.071 1.99998L555.142 9.07104" stroke="black" stroke-width="2"/>
<path d="M554 9.07104L561.071 1.99998L568.142 9.07104" stroke="black" stroke-width="2"/>
<path d="M567 9.07104L574.071 1.99998L581.142 9.07104" stroke="black" stroke-width="2"/>
<path d="M580 9.07104L587.071 1.99998L594.142 9.07104" stroke="black" stroke-width="2"/>
<path d="M593 9.07104L600.071 1.99998L607.142 9.07104" stroke="black" stroke-width="2"/>
<path d="M606 9.07104L613.071 1.99998L620.142 9.07104" stroke="black" stroke-width="2"/>
<path d="M619 9.07104L626.071 1.99998L633.142 9.07104" stroke="black" stroke-width="2"/>
<path d="M632 9.07104L639.071 1.99998L646.142 9.07104" stroke="black" stroke-width="2"/>
<path d="M645 9.07104L652.071 1.99998L659.142 9.07104" stroke="black" stroke-width="2"/>
<path d="M658 9.07104L665.071 1.99998L672.142 9.07104" stroke="black" stroke-width="2"/>
<path d="M671 9.07104L678.071 1.99998L685.142 9.07104" stroke="black" stroke-width="2"/>
<path d="M684 9.07104L691.071 1.99998L698.142 9.07104" stroke="black" stroke-width="2"/>
<path d="M697 9.07104L704.071 1.99998L711.142 9.07104" stroke="black" stroke-width="2"/>
<path d="M710 9.07104L717.071 1.99998L724.142 9.07104" stroke="black" stroke-width="2"/>
<path d="M723 9.07104L730.071 1.99998L737.142 9.07104" stroke="black" stroke-width="2"/>
<path d="M736 9.07104L743.071 1.99998L750.142 9.07104" stroke="black" stroke-width="2"/>
<path d="M749 9.07104L756.071 1.99998L763.142 9.07104" stroke="black" stroke-width="2"/>
<path d="M762 9.07104L769.071 1.99998L776.142 9.07104" stroke="black" stroke-width="2"/>
<path d="M775 9.07104L782.071 1.99998L789.142 9.07104" stroke="black" stroke-width="2"/>
<path d="M788 9.07104L795.071 1.99998L802.142 9.07104" stroke="black" stroke-width="2"/>
<path d="M801 9.07104L808.071 1.99998L815.142 9.07104" stroke="black" stroke-width="2"/>
<path d="M814 9.07104L821.071 1.99998L828.142 9.07104" stroke="black" stroke-width="2"/>
<path d="M827 9.07104L834.071 1.99998L841.142 9.07104" stroke="black" stroke-width="2"/>
<path d="M840 9.07104L847.071 1.99998L854.142 9.07104" stroke="black" stroke-width="2"/>
<path d="M853 9.07104L860.071 1.99998L867.142 9.07104" stroke="black" stroke-width="2"/>
<path d="M866 9.07104L873.071 1.99998L880.142 9.07104" stroke="black" stroke-width="2"/>
<path d="M879 9.07104L886.071 1.99998L893.142 9.07104" stroke="black" stroke-width="2"/>
<path d="M892 9.07104L899.071 1.99998L906.142 9.07104" stroke="black" stroke-width="2"/>
<path d="M905 9.07104L912.071 1.99998L919.142 9.07104" stroke="black" stroke-width="2"/>
<path d="M918 9.07104L925.071 1.99998L932.142 9.07104" stroke="black" stroke-width="2"/>
<path d="M931 9.07104L938.071 1.99998L945.142 9.07104" stroke="black" stroke-width="2"/>
<path d="M944 9.07104L951.071 1.99998L958.142 9.07104" stroke="black" stroke-width="2"/>
<path d="M957 9.07104L964.071 1.99998L971.142 9.07104" stroke="black" stroke-width="2"/>
<path d="M970 9.07104L977.071 1.99998L984.142 9.07104" stroke="black" stroke-width="2"/>
<path d="M983 9.07104L990.071 1.99998L997.142 9.07104" stroke="black" stroke-width="2"/>
<path d="M996 9.07104L1003.07 1.99998L1010.14 9.07104" stroke="black" stroke-width="2"/>
<path d="M1009 9.07104L1016.07 1.99998L1023.14 9.07104" stroke="black" stroke-width="2"/>
<path d="M1022 9.07104L1029.07 1.99998L1036.14 9.07104" stroke="black" stroke-width="2"/>
<path d="M1035 9.07104L1042.07 1.99998L1049.14 9.07104" stroke="black" stroke-width="2"/>
<path d="M1048 9.07104L1055.07 1.99998L1062.14 9.07104" stroke="black" stroke-width="2"/>
<path d="M1061 9.07104L1068.07 1.99998L1075.14 9.07104" stroke="black" stroke-width="2"/>
<path d="M1074 9.07104L1081.07 1.99998L1088.14 9.07104" stroke="black" stroke-width="2"/>
<path d="M1087 9.07104L1094.07 1.99998L1101.14 9.07104" stroke="black" stroke-width="2"/>
<path d="M1100 9.07104L1107.07 1.99998L1114.14 9.07104" stroke="black" stroke-width="2"/>
<path d="M1113 9.07104L1120.07 1.99998L1127.14 9.07104" stroke="black" stroke-width="2"/>
<path d="M1126 9.07104L1133.07 1.99998L1140.14 9.07104" stroke="black" stroke-width="2"/>
<path d="M1139 9.07104L1146.07 1.99998L1153.14 9.07104" stroke="black" stroke-width="2"/>
<path d="M1152 9.07104L1159.07 1.99998L1166.14 9.07104" stroke="black" stroke-width="2"/>
<path d="M1165 9.07104L1172.07 1.99998L1179.14 9.07104" stroke="black" stroke-width="2"/>
<path d="M1178 9.07104L1185.07 1.99998L1192.14 9.07104" stroke="black" stroke-width="2"/>
<path d="M1191 9.07104L1198.07 1.99998L1205.14 9.07104" stroke="black" stroke-width="2"/>
<path d="M1204 9.07104L1211.07 1.99998L1218.14 9.07104" stroke="black" stroke-width="2"/>
</svg>
